# xmcd
#
# Track frame offsets:
#       150
#       14117
#       29677
#       42840
#       55502
#       64820
#       81592
#       94382
#       109980
#       120322
#
# Disc length: 1775 seconds
#
# Revision: 5
# Processed by: cddbd v1.5.2PL0 Copyright (c) Steve Scherf et al.
# Submitted via: FreeDbEdit v0.1
#
DISCID=8a06ed0a
DTITLE=George Strait - The Very Best of George Strait [CD2]
DYEAR=1900
DGENRE=Country
TTITLE0=Love Without End, Amen
TTITLE1=What's Going on in Your World
TTITLE2=If You're Thinking You Want a Stranger (There's One Coming Home)
TTITLE3=The Chair
TTITLE4=Right or Wrong
TTITLE5=I've Come to Expect It From You
TTITLE6=Nobody in His Right Mind Would've Left Her
TTITLE7=Baby's Gotten Good at Goodbye
TTITLE8=Too Much of Too Little
TTITLE9=Amarillo by Morning
EXTD=
EXTT0=
EXTT1=
EXTT2=
EXTT3=
EXTT4=
EXTT5=
EXTT6=
EXTT7=
EXTT8=
EXTT9=
PLAYORDER=
